<svg className="w-6 h-6 mb-1 text-gray-500 group-hover:text-blue-600" aria-hidden="true" viewBox="0 0 28 29" fill="none" xmlns="http://www.w3.org/2000/svg">
    <path fill="#4FA7E7" fillRule="evenodd" clipRule="evenodd" d="M14.3729 2.95441C14.1294 2.8835 13.8707 2.8835 13.6272 2.95441C13.5572 2.97482 13.434 3.02588 13.172 3.22424C12.8965 3.43286 12.5592 3.73142 12.0335 4.19863L5.04738 10.4086C4.1909 11.1699 3.9481 11.3994 3.77932 11.6533C3.61694 11.8976 3.49598 12.167 3.42129 12.4506C3.34366 12.7454 3.33339 13.0794 3.33339 14.2253V20.8933C3.33339 22.0547 3.33447 22.8442 3.38511 23.4541C3.43444 24.048 3.52379 24.3512 3.63362 24.5626C3.88663 25.0497 4.28375 25.4468 4.7708 25.6998C4.98223 25.8096 5.28541 25.899 5.87933 25.9483C6.48921 25.9989 7.2787 26 8.44006 26H8.66673V22C8.66673 19.0545 11.0545 16.6667 14.0001 16.6667C16.9456 16.6667 19.3334 19.0545 19.3334 22V26H19.5601C20.7214 26 21.5109 25.9989 22.1208 25.9483C22.7147 25.899 23.0179 25.8096 23.2293 25.6998C23.7164 25.4468 24.1135 25.0497 24.3665 24.5626C24.4763 24.3512 24.5657 24.048 24.615 23.4541C24.6657 22.8442 24.6667 22.0547 24.6667 20.8933V14.2253C24.6667 13.0794 24.6565 12.7454 24.5788 12.4506C24.5041 12.167 24.3832 11.8976 24.2208 11.6533C24.052 11.3994 23.8092 11.1699 22.9527 10.4086L15.9666 4.19863C15.441 3.73142 15.1036 3.43286 14.8281 3.22424C14.5661 3.02588 14.443 2.97482 14.3729 2.95441ZM12.8816 0.394106C13.6121 0.181375 14.388 0.181375 15.1185 0.394106C15.6253 0.54171 16.0456 0.801287 16.4378 1.0982C16.8071 1.37782 17.223 1.74754 17.7019 2.17328L24.7244 8.41547C24.7622 8.44908 24.7995 8.48222 24.8364 8.51494C25.5319 9.13257 26.0574 9.59915 26.4415 10.177C26.7663 10.6656 27.0082 11.2043 27.1576 11.7716C27.3343 12.4426 27.3339 13.1453 27.3334 14.0755C27.3334 14.1248 27.3334 14.1747 27.3334 14.2253V20.9493C27.3334 22.0407 27.3334 22.9414 27.2725 23.6748C27.2093 24.4366 27.0734 25.1364 26.7329 25.7919C26.2269 26.766 25.4327 27.5602 24.4586 28.0662C23.8031 28.4067 23.1033 28.5425 22.3415 28.6058C21.6081 28.6667 20.7074 28.6667 19.616 28.6667H19.0734C19.0631 28.6667 19.0526 28.6667 19.042 28.6667C18.8805 28.6667 18.6877 28.6668 18.5179 28.6527C18.3209 28.6364 18.0391 28.5944 17.7448 28.4415C17.3795 28.2518 17.0817 27.9539 16.8919 27.5886C16.739 27.2944 16.697 27.0125 16.6807 26.8155C16.6666 26.6457 16.6667 26.4529 16.6667 26.2914L16.6667 22C16.6667 20.5273 15.4728 19.3333 14.0001 19.3333C12.5273 19.3333 11.3334 20.5273 11.3334 22L11.3334 26.2914C11.3335 26.4529 11.3335 26.6457 11.3194 26.8155C11.3031 27.0125 11.2611 27.2943 11.1082 27.5886C10.9185 27.9539 10.6206 28.2518 10.2553 28.4415C9.96106 28.5944 9.67917 28.6364 9.48225 28.6527C9.31244 28.6668 9.11958 28.6667 8.95808 28.6667C8.94749 28.6667 8.93703 28.6667 8.92673 28.6667H8.38409C7.29271 28.6667 6.39198 28.6667 5.65864 28.6058C4.89683 28.5425 4.19705 28.4067 3.54153 28.0662C2.56743 27.5602 1.77319 26.766 1.26719 25.7919C0.926676 25.1364 0.790859 24.4366 0.727594 23.6748C0.666694 22.9414 0.666709 22.0407 0.666727 20.9494L0.666727 14.2253C0.666727 14.1747 0.666701 14.1248 0.666676 14.0755C0.666191 13.1453 0.665825 12.4426 0.842524 11.7716C0.991893 11.2043 1.23382 10.6656 1.55857 10.177C1.94274 9.59915 2.46819 9.13257 3.16375 8.51495C3.2006 8.48222 3.23793 8.44908 3.27574 8.41547L10.2982 2.1733C10.7771 1.74755 11.193 1.37782 11.5624 1.0982C11.9545 0.801286 12.3748 0.54171 12.8816 0.394106Z" />
</svg>