<svg className="w-6 h-6 mb-1 text-gray-500 group-hover:text-blue-600" aria-hidden="true" viewBox="0 0 22 26" fill="none" xmlns="http://www.w3.org/2000/svg">
    <path fill="rgb(107, 114, 128)" fillRule="evenodd" clipRule="evenodd" d="M11 2.66667C8.79084 2.66667 6.99998 4.45753 6.99998 6.66667C6.99998 8.87581 8.79084 10.6667 11 10.6667C13.2091 10.6667 15 8.87581 15 6.66667C15 4.45753 13.2091 2.66667 11 2.66667ZM4.33331 6.66667C4.33331 2.98477 7.31808 0 11 0C14.6819 0 17.6666 2.98477 17.6666 6.66667C17.6666 10.3486 14.6819 13.3333 11 13.3333C7.31808 13.3333 4.33331 10.3486 4.33331 6.66667ZM4.94143 18.3019C3.53577 18.9261 2.99998 19.7144 2.99998 20.6667C2.99998 20.9649 3.05299 21.1336 3.12968 21.256C3.20642 21.3784 3.3895 21.5857 3.8829 21.8089C4.93748 22.286 7.02143 22.6667 11 22.6667C14.9785 22.6667 17.0625 22.286 18.1171 21.8089C18.6105 21.5857 18.7935 21.3784 18.8703 21.256C18.947 21.1336 19 20.9649 19 20.6667C19 19.7144 18.4642 18.9261 17.0585 18.3019C15.6152 17.661 13.4962 17.3333 11 17.3333C8.50377 17.3333 6.38474 17.661 4.94143 18.3019ZM3.8592 15.8647C5.7939 15.0056 8.34154 14.6667 11 14.6667C13.6584 14.6667 16.2061 15.0056 18.1408 15.8647C20.1131 16.7406 21.6666 18.2856 21.6666 20.6667C21.6666 21.2889 21.553 21.9971 21.1297 22.6724C20.7064 23.3475 20.0562 23.8585 19.2162 24.2385C17.6041 24.9678 15.0214 25.3333 11 25.3333C6.97853 25.3333 4.39582 24.9678 2.78373 24.2385C1.94379 23.8585 1.29353 23.3475 0.870276 22.6724C0.446967 21.9971 0.333313 21.2889 0.333313 20.6667C0.333313 18.2856 1.88686 16.7406 3.8592 15.8647Z" />
</svg>